<svg width="24" height="34" viewBox="0 0 24 34" fill="none" xmlns="http://www.w3.org/2000/svg">
<g filter="url(#filter0_d_2874_1584)">
<path d="M10.0628 18.1735C9.73489 18.1735 9.46875 17.9115 9.46875 17.5873V15.2425C9.46875 14.9183 9.73489 14.6562 10.0628 14.6562C10.3907 14.6562 10.6568 14.9183 10.6568 15.2425V17.5873C10.6568 17.9115 10.3907 18.1735 10.0628 18.1735Z" fill="#A5A5A5"/>
<path d="M11.8454 18.1727C11.8454 17.2014 11.0476 16.4141 10.0633 16.4141C9.07906 16.4141 8.28125 17.2013 8.28125 18.1727C8.28125 19.1441 9.07906 19.9313 10.0633 19.9313C11.0476 19.9313 11.8454 19.144 11.8454 18.1727Z" fill="#A5A5A5"/>
<path d="M18.4797 12.1268L10.0636 15.2413L4.18917 1.55577C3.92248 0.794333 4.4957 0 5.31186 0H14.5668C15.0717 0 15.5214 0.314788 15.6877 0.784943L19.1836 10.642C19.3975 11.2434 19.0844 11.9029 18.4797 12.1268Z" fill="#CA3E49"/>
<path d="M4.18856 1.55584C4.1351 1.40284 4.12265 1.24984 4.13271 1.10156L0.942208 10.6415C0.728363 11.2435 1.0414 11.903 1.6461 12.1269L10.0623 15.2414L4.18856 1.55584Z" fill="#9B2432"/>
<path d="M17.1903 26.9642C17.1903 23.0794 13.9986 19.9297 10.062 19.9297C6.12533 19.9297 2.93359 23.0794 2.93359 26.9642C2.93359 30.849 6.12533 33.9987 10.062 33.9987C13.9986 33.9987 17.1903 30.849 17.1903 26.9642Z" fill="#F8D832"/>
<path d="M10.0629 21.6895L11.2556 25.2067H14.815L11.8449 27.5515L13.0329 31.0688L10.0628 29.3102L7.09264 31.0688L8.2807 27.5515L5.31055 25.2067H8.86994L10.0629 21.6895Z" fill="#C4A316"/>
<path d="M16.0277 13.0337L11.2511 0H8.875L13.907 13.8186L16.0277 13.0337Z" fill="white"/>
<path d="M6.40841 6.72852L4.09766 13.0343L6.21831 13.8187L7.70222 9.74339L6.40841 6.72852Z" fill="white"/>
</g>
<defs>
<filter id="filter0_d_2874_1584" x="0.875" y="-2" width="22.375" height="37.998" filterUnits="userSpaceOnUse" color-interpolation-filters="sRGB">
<feFlood flood-opacity="0" result="BackgroundImageFix"/>
<feColorMatrix in="SourceAlpha" type="matrix" values="0 0 0 0 0 0 0 0 0 0 0 0 0 0 0 0 0 0 127 0" result="hardAlpha"/>
<feOffset dx="2"/>
<feGaussianBlur stdDeviation="1"/>
<feComposite in2="hardAlpha" operator="out"/>
<feColorMatrix type="matrix" values="0 0 0 0 0 0 0 0 0 0 0 0 0 0 0 0 0 0 0.15 0"/>
<feBlend mode="normal" in2="BackgroundImageFix" result="effect1_dropShadow_2874_1584"/>
<feBlend mode="normal" in="SourceGraphic" in2="effect1_dropShadow_2874_1584" result="shape"/>
</filter>
</defs>
</svg>
