<svg width="23" height="35" viewBox="0 0 23 35" fill="none" xmlns="http://www.w3.org/2000/svg">
<g filter="url(#filter0_d_2874_1609)">
<path d="M9.20396 18.7066C8.879 18.7066 8.61523 18.4369 8.61523 18.1032V15.6894C8.61523 15.3557 8.879 15.0859 9.20396 15.0859C9.52892 15.0859 9.79268 15.3557 9.79268 15.6894V18.1032C9.79268 18.4369 9.52892 18.7066 9.20396 18.7066Z" fill="#A5A5A5"/>
<path d="M10.9698 18.7049C10.9698 17.705 10.1792 16.8945 9.20367 16.8945C8.22819 16.8945 7.4375 17.7049 7.4375 18.7049C7.4375 19.7048 8.22819 20.5152 9.20367 20.5152C10.1792 20.5152 10.9698 19.7048 10.9698 18.7049Z" fill="#A5A5A5"/>
<path d="M17.5429 12.4835L9.20191 15.6896L3.37999 1.60153C3.11568 0.817696 3.68378 0 4.49265 0H13.665C14.1654 0 14.611 0.324046 14.7759 0.80803L18.2405 10.955C18.4524 11.5741 18.1422 12.253 17.5429 12.4835Z" fill="#CA3E49"/>
<path d="M3.37772 1.60045C3.32474 1.44295 3.31239 1.28545 3.32236 1.13281L0.160358 10.9533C-0.0515775 11.573 0.25866 12.2519 0.857968 12.4824L9.19896 15.6885L3.37772 1.60045Z" fill="#9B2432"/>
<path d="M16.2622 27.757C16.2622 23.758 13.099 20.5156 9.19751 20.5156C5.29604 20.5156 2.13281 23.758 2.13281 27.757C2.13281 31.7561 5.29604 34.9984 9.19751 34.9984C13.099 34.9984 16.2622 31.7561 16.2622 27.757Z" fill="#D6D6D6"/>
<path d="M9.19815 22.3281L10.3803 25.9488H13.9079L10.9643 28.3626L12.1417 31.9833L9.19808 30.173L6.25446 31.9833L7.43191 28.3626L4.48828 25.9488H8.01588L9.19815 22.3281Z" fill="#A3A3A3"/>
<path d="M15.1103 13.417L10.3764 0H8.02148L13.0086 14.2251L15.1103 13.417Z" fill="white"/>
<path d="M5.57722 6.92578L3.28711 13.4171L5.38883 14.2245L6.85949 10.0293L5.57722 6.92578Z" fill="white"/>
</g>
<defs>
<filter id="filter0_d_2874_1609" x="0.09375" y="-2" width="22.2129" height="38.998" filterUnits="userSpaceOnUse" color-interpolation-filters="sRGB">
<feFlood flood-opacity="0" result="BackgroundImageFix"/>
<feColorMatrix in="SourceAlpha" type="matrix" values="0 0 0 0 0 0 0 0 0 0 0 0 0 0 0 0 0 0 127 0" result="hardAlpha"/>
<feOffset dx="2"/>
<feGaussianBlur stdDeviation="1"/>
<feComposite in2="hardAlpha" operator="out"/>
<feColorMatrix type="matrix" values="0 0 0 0 0 0 0 0 0 0 0 0 0 0 0 0 0 0 0.15 0"/>
<feBlend mode="normal" in2="BackgroundImageFix" result="effect1_dropShadow_2874_1609"/>
<feBlend mode="normal" in="SourceGraphic" in2="effect1_dropShadow_2874_1609" result="shape"/>
</filter>
</defs>
</svg>
